<svg width="33" height="31" viewBox="0 0 33 31" fill="none" xmlns="http://www.w3.org/2000/svg">
<g filter="url(#filter0_d_2_476)">
<ellipse cx="16.5068" cy="11.5979" rx="12.4932" ry="11.4021" fill="#FFB400"/>
<g clip-path="url(#clip0_2_476)">
<path d="M21.3589 11.3607C21.3091 10.4882 20.9766 9.64885 20.4036 8.94902C20.229 9.12064 20.0424 9.28172 19.8449 9.43124C19.2382 9.8912 18.5601 10.2666 17.8329 10.5453C17.9343 10.7393 18.0272 10.9272 18.1092 11.1046V11.1062C18.1323 11.1558 18.1546 11.2057 18.176 11.2559C19.0955 11.1617 20.0647 11.196 21.0042 11.3119C21.1293 11.3274 21.2472 11.344 21.3589 11.3607ZM15.6593 7.23134C16.2512 7.99245 16.797 8.78254 17.2942 9.59807C18.0369 9.33091 18.6509 8.99392 19.1453 8.61868C19.3169 8.4896 19.4784 8.34977 19.6287 8.2002C18.7548 7.52938 17.6491 7.16224 16.5071 7.16372C16.2229 7.16354 15.9393 7.18598 15.6593 7.23078V7.23134ZM11.8023 10.4877C12.2161 10.4781 12.6293 10.4554 13.0412 10.4195C14.037 10.3382 15.0243 10.1859 15.994 9.96389C15.4872 9.16032 14.94 8.37852 14.3542 7.62099C13.7285 7.90389 13.1768 8.3063 12.7365 8.80091C12.2962 9.29553 11.9776 9.87079 11.8023 10.4877ZM12.7315 14.3886C12.9672 14.0744 13.2769 13.7207 13.688 13.3361C14.571 12.5102 15.6132 11.8673 16.8193 11.5125L16.8569 11.5025C16.7567 11.3008 16.6626 11.1207 16.5679 10.951C15.4529 11.2476 14.2783 11.4327 13.108 11.5286C12.5372 11.5757 12.0252 11.5962 11.6487 11.5995C11.6476 12.6153 12.0303 13.6003 12.7321 14.3886H12.7315ZM18.3321 15.7078C18.0979 14.6299 17.7664 13.5715 17.341 12.5435C16.1251 12.9464 15.1565 13.5356 14.4077 14.2384C14.1055 14.5169 13.8373 14.8245 13.6079 15.1557C14.4452 15.726 15.4624 16.0334 16.5071 16.032C17.1326 16.0329 17.7523 15.9231 18.3321 15.7089V15.7078ZM19.4696 15.112C20.4177 14.4467 21.0637 13.4856 21.2836 12.4127C21.0771 12.3655 20.8154 12.3184 20.5275 12.2818C19.8875 12.1977 19.2381 12.1916 18.5963 12.2636C18.9577 13.1941 19.2494 14.1459 19.4696 15.1125V15.112ZM16.5071 17.1406C13.153 17.1406 10.4341 14.6591 10.4341 11.5979C10.4341 8.53664 13.153 6.05518 16.5071 6.05518C19.8613 6.05518 22.5802 8.53664 22.5802 11.5979C22.5802 14.6591 19.8613 17.1406 16.5071 17.1406Z" fill="#2B2B2B"/>
</g>
</g>
<defs>
<filter id="filter0_d_2_476" x="0.0136719" y="0.195801" width="32.9863" height="30.8042" filterUnits="userSpaceOnUse" color-interpolation-filters="sRGB">
<feFlood flood-opacity="0" result="BackgroundImageFix"/>
<feColorMatrix in="SourceAlpha" type="matrix" values="0 0 0 0 0 0 0 0 0 0 0 0 0 0 0 0 0 0 127 0" result="hardAlpha"/>
<feOffset dy="4"/>
<feGaussianBlur stdDeviation="2"/>
<feComposite in2="hardAlpha" operator="out"/>
<feColorMatrix type="matrix" values="0 0 0 0 0 0 0 0 0 0 0 0 0 0 0 0 0 0 0.25 0"/>
<feBlend mode="normal" in2="BackgroundImageFix" result="effect1_dropShadow_2_476"/>
<feBlend mode="normal" in="SourceGraphic" in2="effect1_dropShadow_2_476" result="shape"/>
</filter>
<clipPath id="clip0_2_476">
<rect width="14.5753" height="13.3025" fill="white" transform="translate(9.21924 4.94678)"/>
</clipPath>
</defs>
</svg>
