<svg width="26" height="23" viewBox="0 0 26 23" fill="none" xmlns="http://www.w3.org/2000/svg">
<ellipse cx="13.0957" cy="11.5979" rx="12.4932" ry="11.4021" fill="#FFB400"/>
<g clip-path="url(#clip0_2_460)">
<path d="M13.096 6.05518C14.7461 6.05518 14.9519 6.06072 15.5993 6.08843C16.2461 6.11615 16.6864 6.20871 17.0739 6.34617C17.4747 6.48695 17.8123 6.67762 18.15 6.98524C18.4588 7.26232 18.6978 7.59748 18.8502 7.96741C19.0002 8.32048 19.1023 8.72288 19.1326 9.31318C19.1612 9.90403 19.1691 10.0919 19.1691 11.5979C19.1691 13.1038 19.163 13.2917 19.1326 13.8826C19.1023 14.4729 19.0002 14.8747 18.8502 15.2284C18.6982 15.5985 18.4592 15.9337 18.15 16.2105C17.8463 16.4923 17.4791 16.7103 17.0739 16.8496C16.687 16.9865 16.2461 17.0796 15.5993 17.1073C14.9519 17.1334 14.7461 17.1406 13.096 17.1406C11.446 17.1406 11.2401 17.135 10.5927 17.1073C9.94591 17.0796 9.50562 16.9865 9.11815 16.8496C8.71267 16.7107 8.34537 16.4926 8.04201 16.2105C7.73314 15.9335 7.49418 15.5983 7.34178 15.2284C7.19117 14.8753 7.08975 14.4729 7.05939 13.8826C7.03084 13.2917 7.02295 13.1038 7.02295 11.5979C7.02295 10.0919 7.02902 9.90403 7.05939 9.31318C7.08975 8.72233 7.19117 8.32103 7.34178 7.96741C7.49375 7.59726 7.73277 7.262 8.04201 6.98524C8.34546 6.70325 8.71273 6.48514 9.11815 6.34617C9.50562 6.20871 9.94531 6.11615 10.5927 6.08843C11.2401 6.06238 11.446 6.05518 13.096 6.05518ZM13.096 8.82653C12.2907 8.82653 11.5183 9.11851 10.9489 9.63824C10.3794 10.158 10.0595 10.8629 10.0595 11.5979C10.0595 12.3329 10.3794 13.0378 10.9489 13.5575C11.5183 14.0773 12.2907 14.3692 13.096 14.3692C13.9013 14.3692 14.6737 14.0773 15.2432 13.5575C15.8126 13.0378 16.1325 12.3329 16.1325 11.5979C16.1325 10.8629 15.8126 10.158 15.2432 9.63824C14.6737 9.11851 13.9013 8.82653 13.096 8.82653ZM17.0435 8.68796C17.0435 8.50421 16.9635 8.32798 16.8212 8.19805C16.6788 8.06812 16.4857 7.99512 16.2844 7.99512C16.083 7.99512 15.8899 8.06812 15.7476 8.19805C15.6052 8.32798 15.5252 8.50421 15.5252 8.68796C15.5252 8.87171 15.6052 9.04794 15.7476 9.17787C15.8899 9.3078 16.083 9.3808 16.2844 9.3808C16.4857 9.3808 16.6788 9.3078 16.8212 9.17787C16.9635 9.04794 17.0435 8.87171 17.0435 8.68796ZM13.096 9.93507C13.5792 9.93507 14.0426 10.1103 14.3843 10.4221C14.726 10.7339 14.9179 11.1569 14.9179 11.5979C14.9179 12.0389 14.726 12.4618 14.3843 12.7737C14.0426 13.0855 13.5792 13.2607 13.096 13.2607C12.6128 13.2607 12.1494 13.0855 11.8077 12.7737C11.466 12.4618 11.2741 12.0389 11.2741 11.5979C11.2741 11.1569 11.466 10.7339 11.8077 10.4221C12.1494 10.1103 12.6128 9.93507 13.096 9.93507Z" fill="#2B2B2B"/>
</g>
<defs>
<clipPath id="clip0_2_460">
<rect width="14.5753" height="13.3025" fill="white" transform="translate(5.80811 4.94678)"/>
</clipPath>
</defs>
</svg>
