<svg width="26" height="23" viewBox="0 0 26 23" fill="none" xmlns="http://www.w3.org/2000/svg">
<ellipse cx="13.3013" cy="11.5979" rx="12.4932" ry="11.4021" fill="#FFB400"/>
<g clip-path="url(#clip0_2_468)">
<path d="M10.2285 7.71798C10.2284 8.01199 10.1003 8.29389 9.87236 8.50168C9.64446 8.70946 9.33546 8.82612 9.01332 8.82597C8.69119 8.82582 8.38231 8.70889 8.15464 8.50089C7.92697 8.2929 7.79916 8.01088 7.79932 7.71687C7.79948 7.42287 7.9276 7.14097 8.1555 6.93318C8.3834 6.72539 8.6924 6.60874 9.01454 6.60889C9.33667 6.60903 9.64555 6.72597 9.87322 6.93396C10.1009 7.14196 10.2287 7.42398 10.2285 7.71798ZM10.265 9.64684H7.83575V16.5863H10.265V9.64684ZM14.1032 9.64684H11.6861V16.5863H14.0789V12.9448C14.0789 10.9161 16.9757 10.7277 16.9757 12.9448V16.5863H19.3746V12.1909C19.3746 8.7711 15.087 8.89858 14.0789 10.578L14.1032 9.64684Z" fill="#2B2B2B"/>
</g>
<defs>
<clipPath id="clip0_2_468">
<rect width="14.5753" height="13.3025" fill="white" transform="translate(6.01367 4.94678)"/>
</clipPath>
</defs>
</svg>
