<svg width="26" height="23" viewBox="0 0 26 23" fill="none" xmlns="http://www.w3.org/2000/svg">
<ellipse cx="12.6987" cy="11.5979" rx="12.4932" ry="11.4021" fill="#FFB400"/>
<g clip-path="url(#clip0_2_464)">
<path d="M18.8704 8.08171C18.4068 8.26888 17.9151 8.39181 17.4117 8.44642C17.9423 8.15678 18.3395 7.70093 18.5291 7.16384C18.0311 7.43432 17.4852 7.62388 16.9161 7.72642C16.5339 7.35317 16.0272 7.10562 15.4749 7.02227C14.9227 6.93892 14.3557 7.02443 13.8621 7.26552C13.3686 7.50661 12.9761 7.88976 12.7458 8.35541C12.5155 8.82105 12.4602 9.34311 12.5884 9.84041C11.5786 9.79421 10.5906 9.5547 9.68873 9.13741C8.78686 8.72012 7.99122 8.13439 7.35347 7.41825C7.12772 7.77212 7.0091 8.1744 7.00973 8.58388C7.00973 9.38757 7.45792 10.0976 8.13932 10.5133C7.73607 10.5017 7.3417 10.4023 6.98908 10.2234V10.2522C6.9892 10.7875 7.19215 11.3062 7.5635 11.7205C7.93486 12.1348 8.45177 12.4191 9.02659 12.5253C8.65226 12.6179 8.25975 12.6315 7.87879 12.5652C8.04086 13.0259 8.35674 13.4289 8.78221 13.7176C9.20768 14.0063 9.72143 14.1664 10.2515 14.1754C9.72468 14.553 9.12144 14.8322 8.4763 14.9969C7.83116 15.1616 7.15678 15.2087 6.4917 15.1354C7.65268 15.8168 9.00418 16.1786 10.3845 16.1774C15.0565 16.1774 17.6115 12.645 17.6115 9.58157C17.6115 9.4818 17.6084 9.38092 17.6036 9.28226C18.1009 8.95423 18.5301 8.54786 18.871 8.08226L18.8704 8.08171Z" fill="#2B2B2B"/>
</g>
<defs>
<clipPath id="clip0_2_464">
<rect width="14.5753" height="13.3025" fill="white" transform="translate(5.41113 4.94678)"/>
</clipPath>
</defs>
</svg>
