<svg width="26" height="23" viewBox="0 0 26 23" fill="none" xmlns="http://www.w3.org/2000/svg">
<ellipse cx="12.9043" cy="11.5979" rx="12.4932" ry="11.4021" fill="#FFB400"/>
<g clip-path="url(#clip0_2_472)">
<path d="M18.6996 8.54863C18.9772 9.53634 18.9772 11.5982 18.9772 11.5982C18.9772 11.5982 18.9772 13.6601 18.6996 14.6478C18.5454 15.1938 18.0941 15.6233 17.5227 15.7686C16.4848 16.0324 12.9041 16.0324 12.9041 16.0324C12.9041 16.0324 9.32526 16.0324 8.28555 15.7686C7.71165 15.6211 7.26103 15.1921 7.10859 14.6478C6.83105 13.6601 6.83105 11.5982 6.83105 11.5982C6.83105 11.5982 6.83105 9.53634 7.10859 8.54863C7.26285 8.00267 7.71408 7.57311 8.28555 7.4279C9.32526 7.16406 12.9041 7.16406 12.9041 7.16406C12.9041 7.16406 16.4848 7.16406 17.5227 7.4279C18.0966 7.57533 18.5472 8.00434 18.6996 8.54863ZM11.6895 13.5382L15.3333 11.5982L11.6895 9.65828V13.5382Z" fill="#2B2B2B"/>
</g>
<defs>
<clipPath id="clip0_2_472">
<rect width="14.5753" height="13.3025" fill="white" transform="translate(5.61621 4.94678)"/>
</clipPath>
</defs>
</svg>
